<?xml version="1.0" encoding="utf-8"?>
<!-- Generator: Adobe Illustrator 23.0.2, SVG Export Plug-In . SVG Version: 6.00 Build 0)  -->
<svg version="1.1" id="Ebene_1" xmlns="http://www.w3.org/2000/svg" xmlns:xlink="http://www.w3.org/1999/xlink" x="0px" y="0px"
	 viewBox="0 0 113.39 113.39" style="enable-background:new 0 0 113.39 113.39;" xml:space="preserve">
<style type="text/css">
	.st0{fill:none;stroke:#FFFFFF;stroke-width:2;}
	.st1{fill:#2A5848;stroke:#FFFFFF;stroke-width:2;stroke-miterlimit:10;}
	.st2{fill:none;stroke:#2A5848;stroke-width:2;stroke-miterlimit:10;}
	.st3{fill:none;stroke:#2A5848;stroke-width:2;stroke-linecap:round;stroke-miterlimit:10;}
	.st4{fill:none;stroke:#50A489;stroke-width:2;stroke-linecap:round;stroke-miterlimit:10;}
</style>
<g>
	<path class="st0" d="M-182.3-70.81l-23.44,14.47l-23.38-14.47v9.78l22.85,16.88h1.11l22.85-16.88V-70.81z M-182.3-92.67
		l-23.44,14.47l-23.38-14.47v9.78l22.85,16.88h1.11l22.85-16.88V-92.67z"/>
</g>
<g>
	<g>
		<path class="st1" d="M-764.3,167.63c-10.32,1.37-20.85,2.06-31.3,2.07c-0.09,0-0.18,0-0.28,0c-103.34,0-196.05-68.16-227.1-166.32
			l9.33,4.93l-2.55-8.25l-12.72-6.72l-6.72,12.72l2.55,8.25l4.55-8.62c31.99,100.38,126.89,170.01,232.66,170.01
			c0.09,0,0.19,0,0.29,0c10.7-0.01,21.5-0.73,32.08-2.12c1.64-0.22,2.8-1.72,2.58-3.37C-761.15,168.57-762.68,167.42-764.3,167.63z"
			/>
		<path class="st1" d="M-555.04-140.8l-4.99,8.57c-28.72-106.4-124.89-180.3-235.68-180.3c-35.32,0-69.4,7.38-101.27,21.93
			c-1.51,0.69-2.17,2.47-1.48,3.97s2.47,2.18,3.97,1.48c31.09-14.19,64.32-21.38,98.78-21.38c108.17,0,202.05,72.21,229.97,176.15
			l-8.97-5.23l2.2,8.35l12.43,7.24l7.24-12.43L-555.04-140.8z"/>
	</g>
	<g>
		<path class="st1" d="M-511.83-84.96h-255.84c-3.86,0-7,3.14-7,7V96.37c0,3.86,3.14,7,7,7h97.88v42.14h-42.92c-1.66,0-3,1.34-3,3
			s1.34,3,3,3h42.92v0h60.08v0h42.92c1.66,0,3-1.34,3-3s-1.34-3-3-3h-42.92v-42.14h97.88c3.86,0,7-3.14,7-7V-77.96
			C-504.83-81.82-507.97-84.96-511.83-84.96z M-663.79,145.51v-41.96h48.08v41.96H-663.79z M-510.83,96.37c0,0.55-0.45,1-1,1
			h-255.84c-0.55,0-1-0.45-1-1V-77.96c0-0.55,0.45-1,1-1h255.84c0.55,0,1,0.45,1,1V96.37z"/>
		<path class="st1" d="M-646.63-22.2c-11.8,2.53-21.26,11.78-24.12,23.57c-2.65,10.97,0.42,22.3,8.21,30.3
			c6.1,6.27,14.31,9.67,22.86,9.67c2.25,0,4.53-0.24,6.8-0.72c11.81-2.52,21.29-11.76,24.14-23.53c2.66-10.98-0.42-22.33-8.23-30.36
			C-624.7-21.19-635.79-24.53-646.63-22.2z M-614.57,15.68c-2.28,9.4-10.14,17.06-19.56,19.08c-8.84,1.88-17.84-0.83-24.11-7.27
			c-6.34-6.52-8.84-15.76-6.68-24.71c2.28-9.41,10.14-17.09,19.55-19.11c1.85-0.4,3.71-0.59,5.55-0.59c6.93,0,13.6,2.76,18.55,7.85
			C-614.91-2.54-612.4,6.71-614.57,15.68z"/>
		<path class="st1" d="M-587.61,19.58V-1.17c0-0.07,0.03-0.14,0.08-0.2l12.11-11.85c2.05-2,2.48-5.13,1.05-7.62l-6.73-11.65
			c-1.48-2.56-4.47-3.73-7.31-2.85l-15.63,4.82l-19.34-11.3l-3.56-15.77c-0.65-2.88-3.16-4.89-6.12-4.89h-13.38
			c-2.95,0-5.46,2.01-6.11,4.89l-3.69,15.95l-19.43,11.14l-15.41-4.84c-2.84-0.88-5.84,0.29-7.31,2.85l-6.73,11.66
			c-1.43,2.48-1,5.61,1.05,7.62l12.2,12.05l-0.08,20.94l-12.12,11.86c-2.05,2.01-2.48,5.14-1.04,7.62l6.73,11.65
			c1.47,2.56,4.49,3.74,7.31,2.85l15.63-4.81l19.34,11.3l3.56,15.77c0.65,2.88,3.16,4.89,6.11,4.89h13.38
			c2.95,0,5.47-2.01,6.12-4.89l3.69-15.95l19.43-11.15l15.43,4.84c2.84,0.88,5.83-0.3,7.3-2.85l6.73-11.66
			c1.43-2.48,0.99-5.62-1.05-7.61L-587.61,19.58z M-586.61,48.03l-15.41-4.84c-1.68-0.53-3.51-0.33-5.03,0.55l-19.21,11.12
			c-1.51,0.87-2.6,2.35-2.98,4.05l-3.83,15.99l-13.64-0.21l-3.56-15.77c-0.38-1.71-1.47-3.18-2.98-4.05l-19.21-11.12
			c-0.97-0.56-2.06-0.85-3.15-0.85c-0.63,0-1.26,0.1-1.87,0.29l-15.73,4.71l-6.68-11.98l12.11-11.85c1.2-1.17,1.89-2.8,1.89-4.49
			V-1.17c0-1.68-0.69-3.31-1.89-4.48l-12.16-12.19l7.05-11.77l15.41,4.83c1.68,0.53,3.51,0.33,5.03-0.55l19.21-11.13
			c1.51-0.88,2.59-2.35,2.97-4.04l3.82-15.99l13.64,0.21l3.56,15.77c0.38,1.7,1.46,3.17,2.97,4.05l19.21,11.13
			c1.52,0.88,3.36,1.08,5.02,0.55l15.74-4.71l6.68,11.98l-12.11,11.86c-1.2,1.17-1.89,2.81-1.89,4.48v20.75
			c0,1.68,0.69,3.32,1.89,4.48l12.16,12.19L-586.61,48.03z"/>
	</g>
	<path class="st1" d="M-927.54-154.68h-60.51v-95.12h45.25c2.38,0,4.31-1.93,4.31-4.31v-35.2c0-2.38-1.93-4.31-4.31-4.31h-120.54
		c-2.38,0-4.31,1.93-4.31,4.31v35.2c0,2.38,1.93,4.31,4.31,4.31h45.25v95.12h-60.51c-2.78,0-5.05,2.27-5.05,5.05v10.92
		c0,2.78,2.27,5.05,5.05,5.05h18.8l-15.92,103.18c-0.22,1.46,0.2,2.94,1.16,4.06c0.96,1.12,2.36,1.76,3.83,1.76h11.05
		c2.47,0,4.62-1.84,4.99-4.28l16.16-104.72h70.9l16.16,104.73c0.39,2.47,2.48,4.27,4.99,4.27h11.05c1.47,0,2.87-0.64,3.83-1.76
		c0.96-1.12,1.38-2.6,1.16-4.06l-15.92-103.18h18.81c2.78,0,5.05-2.26,5.05-5.05v-10.92C-922.49-152.41-924.76-154.68-927.54-154.68
		z M-1061.64-255.8v-31.82h117.15v31.82H-1061.64z M-1012.07-249.8h18.03v95.12h-18.03V-249.8z M-1060.48-30.66h-9.12l15.89-103
		h9.13L-1060.48-30.66z M-936.52-30.66h-9.13l-15.89-103h9.12L-936.52-30.66z M-928.49-139.66h-149.14v-9.02h149.14V-139.66z"/>
</g>
<g>
	<path class="st2" d="M36.7,21.58l21.71,35.15L36.7,91.8h14.68l25.31-34.28v-1.67L51.37,21.58H36.7z"/>
</g>
<g>
	<path class="st2" d="M43.36-90.84l14.47,23.44L43.36-44.03h9.78l16.88-22.85v-1.11L53.15-90.84H43.36z"/>
</g>
<g>
	<path class="st2" d="M-52.33,89.85L-74.03,54.7l21.71-35.07H-67L-92.32,53.9v1.67L-67,89.85H-52.33z"/>
</g>
<g>
	<path class="st2" d="M-58.99-45l-14.47-23.44l14.47-23.38h-9.78l-16.88,22.85v1.11L-68.77-45H-58.99z"/>
</g>
<line class="st3" x1="392.71" y1="-89.03" x2="436.55" y2="-45.18"/>
<line class="st3" x1="392.71" y1="-45.18" x2="436.55" y2="-89.03"/>
<line class="st4" x1="293.9" y1="-89.03" x2="337.74" y2="-45.18"/>
<line class="st4" x1="293.9" y1="-45.18" x2="337.74" y2="-89.03"/>
<g>
	<line class="st4" x1="168.67" y1="-84.12" x2="230.67" y2="-84.12"/>
	<line class="st4" x1="168.67" y1="-50.08" x2="230.67" y2="-50.08"/>
	<line class="st4" x1="168.67" y1="-67.1" x2="230.67" y2="-67.1"/>
</g>
</svg>
