<?xml version="1.0" encoding="utf-8"?>
<!-- Generator: Adobe Illustrator 23.0.2, SVG Export Plug-In . SVG Version: 6.00 Build 0)  -->
<svg version="1.1" id="Ebene_1" xmlns="http://www.w3.org/2000/svg" xmlns:xlink="http://www.w3.org/1999/xlink" x="0px" y="0px"
	 viewBox="0 0 651.97 651.97" style="enable-background:new 0 0 651.97 651.97;" xml:space="preserve">
<style type="text/css">
	.st0{fill:none;stroke:#FFFFFF;stroke-width:2;}
	.st1{fill:#2A5848;stroke:#FFFFFF;stroke-width:2;stroke-miterlimit:10;}
	.st2{fill:none;stroke:#2A5848;stroke-width:2;stroke-miterlimit:10;}
	.st3{fill:none;stroke:#50A489;stroke-width:2;stroke-linecap:round;stroke-miterlimit:10;}
</style>
<g>
	<g>
		<path class="st1" d="M355.91,562.03c-10.32,1.37-20.85,2.06-31.3,2.07c-0.09,0-0.18,0-0.28,0c-103.34,0-196.05-68.16-227.1-166.32
			l9.33,4.93l-2.55-8.25l-12.72-6.72l-6.72,12.72l2.55,8.25l4.55-8.62C123.67,500.47,218.57,570.1,324.34,570.1
			c0.09,0,0.19,0,0.29,0c10.7-0.01,21.5-0.73,32.08-2.12c1.64-0.22,2.8-1.72,2.58-3.37C359.06,562.97,357.53,561.81,355.91,562.03z"
			/>
		<path class="st1" d="M565.18,253.59l-4.99,8.57c-28.72-106.4-124.89-180.3-235.68-180.3c-35.32,0-69.4,7.38-101.27,21.93
			c-1.51,0.69-2.17,2.47-1.48,3.97s2.47,2.18,3.97,1.48c31.09-14.19,64.32-21.38,98.78-21.38c108.17,0,202.05,72.21,229.97,176.15
			l-8.97-5.23l2.2,8.35l12.43,7.24l7.24-12.43L565.18,253.59z"/>
	</g>
	<g>
		<path class="st1" d="M608.38,309.44H352.55c-3.86,0-7,3.14-7,7v174.33c0,3.86,3.14,7,7,7h97.88v42.14h-42.92c-1.66,0-3,1.34-3,3
			s1.34,3,3,3h42.92v0h60.08v0h42.92c1.66,0,3-1.34,3-3s-1.34-3-3-3h-42.92v-42.14h97.88c3.86,0,7-3.14,7-7V316.44
			C615.38,312.58,612.24,309.44,608.38,309.44z M456.43,539.91v-41.96h48.08v41.96H456.43z M609.38,490.77c0,0.55-0.45,1-1,1H352.55
			c-0.55,0-1-0.45-1-1V316.44c0-0.55,0.45-1,1-1h255.84c0.55,0,1,0.45,1,1V490.77z"/>
		<path class="st1" d="M473.58,372.19c-11.8,2.53-21.26,11.78-24.12,23.57c-2.65,10.97,0.42,22.3,8.21,30.3
			c6.1,6.27,14.31,9.67,22.86,9.67c2.25,0,4.53-0.24,6.8-0.72c11.81-2.52,21.29-11.76,24.14-23.53c2.66-10.98-0.42-22.33-8.23-30.36
			C495.52,373.21,484.43,369.86,473.58,372.19z M505.64,410.07c-2.28,9.4-10.14,17.06-19.56,19.08c-8.84,1.88-17.84-0.83-24.11-7.27
			c-6.34-6.52-8.84-15.76-6.68-24.71c2.28-9.41,10.14-17.09,19.55-19.11c1.85-0.4,3.71-0.59,5.55-0.59c6.93,0,13.6,2.76,18.55,7.85
			C505.31,391.85,507.81,401.11,505.64,410.07z"/>
		<path class="st1" d="M532.6,413.98v-20.75c0-0.07,0.03-0.14,0.08-0.2l12.11-11.85c2.05-2,2.48-5.13,1.05-7.62l-6.73-11.65
			c-1.48-2.56-4.47-3.73-7.31-2.85l-15.63,4.82l-19.34-11.3l-3.56-15.77c-0.65-2.88-3.16-4.89-6.12-4.89h-13.38
			c-2.95,0-5.46,2.01-6.11,4.89l-3.69,15.95l-19.43,11.14l-15.41-4.84c-2.84-0.88-5.84,0.29-7.31,2.85l-6.73,11.66
			c-1.43,2.48-1,5.61,1.05,7.62l12.2,12.05l-0.08,20.94l-12.12,11.86c-2.05,2.01-2.48,5.14-1.04,7.62l6.73,11.65
			c1.47,2.56,4.49,3.74,7.31,2.85l15.63-4.81l19.34,11.3l3.56,15.77c0.65,2.88,3.16,4.89,6.11,4.89h13.38
			c2.95,0,5.47-2.01,6.12-4.89l3.69-15.95l19.43-11.15l15.43,4.84c2.84,0.88,5.83-0.3,7.3-2.85l6.73-11.66
			c1.43-2.48,0.99-5.62-1.05-7.61L532.6,413.98z M533.6,442.43l-15.41-4.84c-1.68-0.53-3.51-0.33-5.03,0.55l-19.21,11.12
			c-1.51,0.87-2.6,2.35-2.98,4.05l-3.83,15.99l-13.64-0.21l-3.56-15.77c-0.38-1.71-1.47-3.18-2.98-4.05l-19.21-11.12
			c-0.97-0.56-2.06-0.85-3.15-0.85c-0.63,0-1.26,0.1-1.87,0.29l-15.73,4.71l-6.68-11.98l12.11-11.85c1.2-1.17,1.89-2.8,1.89-4.49
			v-20.75c0-1.68-0.69-3.31-1.89-4.48l-12.16-12.19l7.05-11.77l15.41,4.83c1.68,0.53,3.51,0.33,5.03-0.55l19.21-11.13
			c1.51-0.88,2.59-2.35,2.97-4.04l3.82-15.99l13.64,0.21l3.56,15.77c0.38,1.7,1.46,3.17,2.97,4.05l19.21,11.12
			c1.52,0.88,3.36,1.08,5.02,0.55l15.74-4.71l6.68,11.98l-12.11,11.86c-1.2,1.17-1.89,2.81-1.89,4.48v20.75
			c0,1.68,0.69,3.32,1.89,4.48l12.16,12.19L533.6,442.43z"/>
	</g>
	<path class="st1" d="M192.68,239.72h-60.51V144.6h45.25c2.38,0,4.31-1.93,4.31-4.31v-35.2c0-2.38-1.93-4.31-4.31-4.31H56.89
		c-2.38,0-4.31,1.93-4.31,4.31v35.2c0,2.38,1.93,4.31,4.31,4.31h45.25v95.12H41.63c-2.78,0-5.05,2.27-5.05,5.05v10.92
		c0,2.78,2.27,5.05,5.05,5.05h18.8L44.52,363.92c-0.22,1.46,0.2,2.94,1.16,4.06c0.96,1.12,2.36,1.76,3.83,1.76h11.05
		c2.47,0,4.62-1.84,4.99-4.28L81.7,260.74h70.9l16.16,104.73c0.39,2.47,2.48,4.27,4.99,4.27h11.05c1.47,0,2.87-0.64,3.83-1.76
		c0.96-1.12,1.38-2.6,1.16-4.06l-15.92-103.18h18.81c2.78,0,5.05-2.26,5.05-5.05v-10.92C197.72,241.99,195.46,239.72,192.68,239.72z
		 M58.58,138.6v-31.82h117.15v31.82H58.58z M108.14,144.6h18.03v95.12h-18.03V144.6z M59.74,363.74h-9.12l15.89-103h9.13
		L59.74,363.74z M183.7,363.74h-9.13l-15.89-103h9.12L183.7,363.74z M191.72,254.74H42.58v-9.02h149.14V254.74z"/>
</g>
</svg>
